name rise42.5664peak47.7979fall81.9185.mot
datacolumns 19
datarows 11
range 17.69326600000000 17.70993300000000
endheader
time	ground_force1_vx	ground_force1_vy	ground_force1_vz	ground_force1_px	ground_force1_py	ground_force1_pz	ground_force2_vx	ground_force2_vy	ground_force2_vz	ground_force2_px	ground_force2_py	ground_force2_pz	ground_torque1_x	ground_torque1_y	ground_torque1_z	ground_torque2_x	ground_torque2_y	ground_torque2_z	
17.69326600000000	-39.15976600000000	803.85638200000005	47.25941100000000	0.10860000000000	0.00000000000000	0.09723500000000	-9.58989200000000	71.09417800000000	9.83234100000000	0.36261800000000	0.00000000000000	-0.07163200000000	0.00000000000000	16.79194600000000	0.00000000000000	0.00000000000000	6.04915500000000	0.00000000000000	
17.69493500000000	-39.94865600000000	802.66494499999999	47.21160200000000	0.10782000000000	0.00000000000000	0.09722600000000	-9.81922200000000	75.61892200000000	10.27629400000000	0.36469100000000	0.00000000000000	-0.07184500000000	0.00000000000000	16.78635000000000	0.00000000000000	0.00000000000000	6.39890000000000	0.00000000000000	
17.69659600000000	-40.75913100000000	801.36140599999999	47.14637700000000	0.10703900000000	0.00000000000000	0.09721600000000	-9.95562200000000	79.88710800000000	10.65397100000000	0.36658500000000	0.00000000000000	-0.07205300000000	0.00000000000000	16.78291700000000	0.00000000000000	0.00000000000000	6.71437900000000	0.00000000000000	
17.69826900000000	-41.59104700000000	799.94251899999995	47.06342400000000	0.10625800000000	0.00000000000000	0.09720600000000	-10.00821500000000	83.94363300000001	10.97223000000000	0.36831500000000	0.00000000000000	-0.07225900000000	0.00000000000000	16.78167200000000	0.00000000000000	0.00000000000000	6.99856500000000	0.00000000000000	
17.69993800000000	-42.44417000000000	798.40504699999997	46.96246700000000	0.10547600000000	0.00000000000000	0.09719600000000	-9.98741000000000	87.84158700000000	11.23915500000000	0.36989300000000	0.00000000000000	-0.07246300000000	0.00000000000000	16.78262500000000	0.00000000000000	0.00000000000000	7.25530100000000	0.00000000000000	
17.70160200000000	-43.31817100000000	796.74576700000000	46.84325800000000	0.10469100000000	0.00000000000000	0.09718500000000	-9.90392000000000	91.63712300000000	11.46321600000000	0.37133100000000	0.00000000000000	-0.07266500000000	0.00000000000000	16.78577400000000	0.00000000000000	0.00000000000000	7.48882100000000	0.00000000000000	
17.70326600000000	-44.21262300000000	794.96147399999995	46.70558800000000	0.10390400000000	0.00000000000000	0.09717400000000	-9.76791600000000	95.38495300000000	11.65255100000000	0.37263900000000	0.00000000000000	-0.07286800000000	0.00000000000000	16.79110400000000	0.00000000000000	0.00000000000000	7.70332800000000	0.00000000000000	
17.70492900000000	-45.12700000000000	793.04898600000001	46.54928000000000	0.10311200000000	0.00000000000000	0.09716300000000	-9.58837900000000	99.13472899999999	11.81438700000000	0.37382700000000	0.00000000000000	-0.07307100000000	0.00000000000000	16.79858700000000	0.00000000000000	0.00000000000000	7.90264500000000	0.00000000000000	
17.70659900000000	-46.06067300000000	791.00514999999996	46.37418900000000	0.10231600000000	0.00000000000000	0.09715200000000	-9.37264900000000	102.92840900000000	11.95463600000000	0.37490200000000	0.00000000000000	-0.07327600000000	0.00000000000000	16.80818200000000	0.00000000000000	0.00000000000000	8.08995900000000	0.00000000000000	
17.70826500000000	-47.01290800000000	788.82684600000005	46.18021000000000	0.10151500000000	0.00000000000000	0.09714100000000	-9.12617800000000	106.79866400000000	12.07766100000000	0.37587300000000	0.00000000000000	-0.07348300000000	0.00000000000000	16.81983100000000	0.00000000000000	0.00000000000000	8.26765900000000	0.00000000000000	
17.70993300000000	-47.98286700000000	786.51099199999999	45.96726800000000	0.10070800000000	0.00000000000000	0.09713000000000	-8.85247200000000	110.76824300000000	12.18619000000000	0.37674500000000	0.00000000000000	-0.07369200000000	0.00000000000000	16.83346400000000	0.00000000000000	0.00000000000000	8.43726300000000	0.00000000000000	
